<?xml version="1.0" standalone="no"?>
<!DOCTYPE svg PUBLIC "-//W3C//DTD SVG 20010904//EN"
 "http://www.w3.org/TR/2001/REC-SVG-20010904/DTD/svg10.dtd">
<svg version="1.0" xmlns="http://www.w3.org/2000/svg"
 width="1014.000000pt" height="904.000000pt" viewBox="0 0 1014.000000 904.000000"
 preserveAspectRatio="xMidYMid meet">

<g transform="translate(0.000000,904.000000) scale(0.100000,-0.100000)"
fill="#000000" stroke="none">
<path d="M4955 8380 c-88 -4 -182 -11 -210 -14 -439 -62 -690 -123 -990 -243
-728 -291 -1337 -783 -1772 -1433 -507 -755 -718 -1670 -598 -2580 49 -369
134 -676 282 -1020 449 -1040 1401 -1861 2488 -2145 359 -94 794 -145 1115
-131 549 25 1091 161 1545 388 395 198 684 407 1001 723 364 363 615 730 819
1200 224 514 328 1091 296 1634 -25 420 -76 700 -192 1046 -65 191 -102 282
-195 468 -149 299 -322 561 -533 807 -184 215 -459 460 -710 634 -687 475
-1495 704 -2346 666z m630 -145 c589 -71 1160 -290 1669 -640 205 -141 474
-383 650 -585 441 -504 740 -1127 850 -1770 92 -536 77 -1040 -45 -1519 -217
-854 -695 -1555 -1432 -2100 -262 -194 -631 -383 -957 -489 -430 -141 -745
-192 -1184 -192 -405 0 -744 54 -1141 180 -309 99 -642 263 -925 458 -161 111
-444 348 -545 457 -224 241 -306 342 -430 530 -388 587 -581 1184 -615 1896
-43 912 256 1784 855 2494 121 143 382 399 515 504 469 373 1054 637 1645 745
121 22 210 32 415 50 102 9 552 -4 675 -19z"/>
<path d="M4910 8173 c-591 -35 -1222 -244 -1725 -572 -277 -180 -573 -441
-791 -696 -162 -189 -343 -464 -462 -701 -174 -347 -292 -728 -351 -1129 -58
-395 -24 -927 86 -1360 279 -1098 1066 -2000 2126 -2439 339 -140 755 -231
1170 -256 702 -41 1474 159 2075 539 282 178 558 406 753 622 566 627 883
1370 939 2207 22 330 -24 787 -116 1130 -142 534 -407 1028 -780 1452 -293
334 -665 621 -1064 821 -432 217 -881 343 -1350 379 -124 9 -378 11 -510 3z
m500 -83 c641 -47 1245 -266 1770 -640 227 -161 530 -448 704 -665 312 -389
542 -855 666 -1353 36 -146 84 -426 76 -447 -3 -8 -16 -15 -29 -15 -22 0 -26
7 -41 83 -15 71 -57 235 -72 276 -13 38 -13 -7 0 -100 8 -57 17 -141 19 -186
5 -74 3 -83 -12 -83 -14 0 -20 15 -30 73 -12 68 -38 175 -67 277 -11 40 -13
41 -13 15 -1 -17 3 -66 8 -110 6 -44 13 -122 16 -172 6 -82 5 -93 -9 -93 -9 0
-16 2 -16 4 0 22 -65 284 -76 309 -15 31 -15 31 -10 -33 3 -36 9 -118 12 -182
6 -100 5 -118 -8 -118 -10 0 -18 21 -27 68 -22 117 -53 236 -67 262 -15 28
-14 10 7 -180 14 -134 13 -160 -11 -160 -14 0 -20 7 -20 23 0 32 -36 191 -60
262 l-20 60 6 -90 c4 -49 9 -129 13 -177 6 -78 4 -88 -10 -88 -13 0 -20 19
-33 88 -9 48 -27 121 -41 162 l-25 75 5 -75 c2 -41 7 -119 11 -174 7 -91 6
-98 -11 -95 -14 3 -22 24 -36 94 -23 116 -50 205 -61 205 -5 0 -7 -8 -4 -17 3
-10 8 -79 12 -154 6 -125 5 -136 -11 -143 -10 -4 -21 -3 -25 1 -4 4 -17 71
-29 148 -89 560 -332 1051 -731 1478 -172 183 -468 404 -720 536 -211 111
-530 220 -755 260 -370 65 -844 51 -1180 -35 -406 -103 -789 -299 -1107 -566
-439 -369 -752 -865 -894 -1416 -38 -147 -64 -294 -64 -359 0 -45 -9 -57 -35
-46 -16 5 -17 18 -11 112 4 58 9 131 11 161 l5 55 -16 -35 c-20 -44 -64 -216
-64 -252 0 -22 -5 -28 -21 -28 -20 0 -21 4 -15 53 3 28 8 102 11 162 5 100 5
107 -8 79 -18 -37 -57 -202 -57 -237 0 -13 -7 -30 -15 -37 -23 -19 -29 10 -22
108 4 48 9 119 12 157 5 66 4 68 -9 40 -8 -16 -25 -73 -37 -125 -12 -52 -26
-112 -31 -132 -10 -42 -38 -53 -38 -15 0 12 7 85 15 162 8 77 14 149 14 160
-1 44 -55 -148 -85 -302 -3 -14 -12 -23 -22 -23 -16 0 -17 8 -5 128 6 70 12
150 11 177 l0 50 -19 -60 c-11 -33 -28 -103 -40 -155 -27 -128 -28 -130 -46
-130 -13 0 -14 12 -8 88 4 48 13 132 20 187 7 55 11 102 9 104 -9 10 -94 -303
-94 -349 0 -15 -5 -20 -17 -18 -15 3 -18 13 -15 68 3 57 13 162 27 285 7 59
-40 -90 -60 -190 -9 -44 -21 -97 -28 -118 -9 -34 -13 -38 -36 -32 -14 4 -28 9
-30 11 -9 9 30 266 59 390 156 658 454 1197 931 1685 552 564 1328 940 2104
1018 211 22 457 26 655 11z m50 -844 c330 -38 668 -146 955 -304 261 -145 491
-323 681 -528 474 -512 717 -1138 718 -1849 0 -488 -152 -988 -428 -1410 -171
-260 -357 -461 -626 -677 -175 -140 -503 -315 -750 -400 -271 -94 -692 -158
-950 -144 -606 34 -1109 216 -1560 564 -191 148 -429 405 -565 609 -32 49 -66
99 -75 113 -34 51 -110 198 -158 307 -91 204 -163 450 -197 673 -25 166 -37
485 -24 625 44 482 218 952 492 1330 127 174 378 434 535 552 389 293 858 485
1312 537 157 19 486 19 640 2z m-3436 -2520 c9 -30 23 -57 32 -60 9 -3 40 -6
70 -6 60 0 69 -11 25 -30 -16 -6 -39 -23 -52 -36 -24 -26 -24 -31 8 -126 8
-27 -14 -22 -57 12 -21 17 -43 30 -50 30 -7 0 -35 -16 -62 -36 -28 -19 -52
-33 -55 -30 -3 2 4 30 16 61 12 31 21 60 21 65 0 6 -26 27 -57 47 l-56 38 67
6 c36 3 70 10 75 15 5 5 16 33 26 62 9 28 20 50 25 47 5 -3 16 -30 24 -59z
m6294 15 c7 -21 12 -45 12 -54 0 -21 21 -27 91 -27 64 0 75 -11 32 -29 -16 -7
-41 -22 -57 -35 l-28 -23 22 -62 c13 -34 21 -64 18 -66 -2 -3 -28 13 -58 35
-29 22 -58 36 -64 33 -6 -4 -30 -22 -54 -41 -23 -19 -45 -32 -48 -29 -5 5 11
62 33 123 2 6 -21 28 -52 49 -31 20 -54 39 -51 42 3 3 33 7 67 9 74 5 76 6 84
47 9 39 23 67 34 67 4 0 13 -17 19 -39z m-5898 -526 c41 -351 173 -714 388
-1070 171 -283 464 -593 760 -803 144 -102 431 -254 607 -321 285 -108 636
-171 956 -171 322 0 577 41 889 142 108 35 319 125 400 170 287 161 463 290
655 482 219 218 357 401 498 661 154 285 278 669 303 943 7 71 7 72 36 72 27
0 28 -2 23 -37 -2 -21 -7 -78 -10 -128 -3 -49 -8 -105 -12 -124 -4 -22 -2 -32
4 -28 12 7 45 126 64 227 12 66 25 86 44 70 11 -9 10 -26 -14 -245 -5 -44 -8
-82 -6 -84 9 -8 38 82 61 187 27 126 29 132 49 132 15 0 13 -69 -6 -218 -20
-162 -4 -161 34 3 14 61 30 130 34 155 6 30 14 46 26 48 22 4 22 -45 2 -213
-18 -145 -18 -152 -6 -139 11 10 18 36 60 219 19 84 32 120 42 120 17 0 15
-96 -5 -264 -11 -85 -11 -101 0 -86 11 15 32 94 75 288 7 28 16 47 25 47 17 0
18 -45 5 -170 -21 -191 -22 -215 -13 -200 10 17 54 190 74 290 10 49 18 66 32
68 17 4 18 -2 12 -80 -8 -102 -25 -255 -32 -286 -3 -14 -1 -21 5 -18 7 5 67
240 87 344 4 19 10 23 37 20 31 -3 32 -4 29 -43 -7 -77 -63 -361 -93 -470
-172 -619 -471 -1135 -909 -1574 -486 -486 -1067 -804 -1745 -955 -298 -66
-353 -71 -735 -71 -403 0 -503 11 -859 96 -114 27 -386 113 -456 144 -338 149
-568 280 -808 462 -383 290 -694 646 -941 1076 -200 349 -340 755 -406 1177
-26 169 -27 162 12 158 l32 -3 22 -110 c22 -111 72 -283 73 -254 1 8 -5 64
-13 125 -22 171 -24 258 -5 262 12 2 20 -20 38 -108 22 -114 62 -250 71 -250
3 0 1 42 -6 93 -6 50 -15 134 -19 185 -7 86 -6 92 12 92 16 0 22 -15 37 -97
15 -82 31 -144 62 -242 13 -39 12 9 -2 127 -16 139 -16 227 1 227 6 0 15 -22
21 -50 25 -111 45 -194 63 -260 19 -67 20 -68 20 -28 1 23 -3 75 -8 115 -5 40
-13 111 -16 156 -6 76 -5 83 11 80 13 -2 23 -30 44 -123 14 -66 34 -137 43
-159 9 -21 17 -48 17 -59 0 -11 2 -18 5 -15 3 3 -1 61 -10 129 -20 160 -20
239 -1 239 10 0 19 -20 27 -57 32 -156 65 -271 74 -261 2 2 -2 62 -10 134 -20
175 -19 194 3 194 16 0 22 -15 35 -82 9 -46 28 -119 42 -163 l25 -80 -5 60
c-3 33 -8 110 -11 171 -7 105 -6 112 12 116 10 3 22 2 25 -1 4 -3 12 -51 19
-106z"/>
<path d="M5222 7928 c2 -27 8 -34 29 -36 30 -3 24 11 99 -263 27 -100 51 -183
52 -185 2 -1 30 -5 63 -9 l60 -7 89 164 c130 237 130 236 168 240 28 2 33 7
33 28 0 27 -26 36 -125 42 -52 3 -55 1 -58 -21 -2 -15 3 -28 12 -33 9 -5 16
-13 16 -18 0 -10 -157 -301 -169 -313 -9 -9 -29 52 -76 228 -15 55 -30 105
-32 112 -3 7 6 15 22 19 21 5 26 11 23 33 -3 28 -4 28 -151 45 l-58 6 3 -32z"/>
<path d="M4737 7935 c-77 -20 -126 -49 -165 -100 -92 -121 -52 -305 83 -374
43 -23 62 -26 145 -26 138 1 210 37 266 131 50 84 38 208 -26 286 -63 76 -190
111 -303 83z m169 -70 c85 -50 120 -185 73 -283 -55 -113 -218 -136 -302 -43
-72 80 -76 219 -9 295 51 57 167 73 238 31z"/>
<path d="M4203 7833 c-59 -21 -73 -31 -73 -47 0 -51 -31 -420 -35 -425 -3 -2
-73 66 -157 152 -83 86 -159 157 -168 157 -18 0 -119 -38 -133 -51 -5 -4 -6
-17 -2 -29 5 -16 13 -20 33 -18 24 3 28 -3 75 -132 76 -210 74 -201 54 -211
-20 -12 -22 -29 -4 -52 11 -16 16 -16 67 4 69 26 89 43 74 66 -6 10 -21 18
-34 18 -23 0 -38 30 -111 230 l-30 80 158 -158 159 -158 37 16 c20 8 38 19 38
23 4 27 8 79 19 237 11 167 14 195 23 184 2 -2 22 -56 45 -119 22 -63 47 -130
54 -148 11 -30 11 -35 -5 -43 -20 -11 -23 -55 -4 -62 12 -4 145 40 160 54 17
14 -3 48 -31 51 -23 3 -30 13 -58 85 -18 45 -44 118 -59 162 -27 77 -27 82
-11 100 12 13 15 27 11 40 -8 25 -3 26 -92 -6z"/>
<path d="M5950 7814 c0 -15 8 -32 17 -39 16 -12 14 -24 -26 -166 -51 -182 -54
-189 -86 -189 -20 0 -25 -5 -25 -24 0 -22 9 -27 83 -50 76 -24 83 -24 95 -9
18 25 15 44 -8 50 -11 3 -20 10 -20 15 0 5 18 69 39 141 22 73 42 147 46 165
5 25 12 32 30 32 26 0 48 29 37 47 -7 10 -144 53 -170 53 -7 0 -12 -12 -12
-26z"/>
<path d="M6257 7743 c-12 -12 -7 -46 8 -57 15 -11 0 -54 -80 -231 -7 -16 -20
-47 -29 -67 -13 -33 -20 -38 -46 -38 -28 0 -31 -3 -28 -26 3 -24 16 -32 118
-76 63 -27 146 -63 184 -79 80 -35 94 -30 103 38 4 32 2 41 -13 47 -13 5 -23
0 -35 -15 l-16 -21 -74 35 c-41 19 -84 38 -96 41 -29 9 -29 18 3 93 24 57 28
61 47 51 12 -6 32 -14 46 -18 22 -5 25 -11 23 -37 -3 -25 1 -33 19 -38 27 -9
43 11 71 84 13 33 15 48 6 58 -14 18 -48 17 -48 -2 0 -17 -45 -21 -55 -5 -3 6
-15 10 -25 10 -10 0 -21 4 -24 9 -7 11 45 141 57 141 6 0 50 -17 99 -37 82
-35 88 -40 83 -62 -6 -25 7 -41 36 -41 15 0 49 58 49 84 0 7 -50 34 -112 61
-62 26 -143 60 -180 76 -70 31 -81 33 -91 22z"/>
<path d="M5060 6816 c-55 -16 -77 -26 -360 -161 -124 -59 -277 -132 -340 -162
-603 -288 -767 -367 -779 -379 -12 -11 -12 -18 -3 -39 20 -43 6 -48 387 135
72 34 184 88 250 120 286 137 380 182 540 260 197 95 239 105 278 66 15 -15
29 -37 32 -49 3 -12 4 -681 3 -1487 -3 -1447 -3 -1465 -23 -1492 -50 -67 -93
-64 -327 27 -106 42 -301 118 -433 170 -486 190 -525 205 -544 205 -36 0 -51
-60 -18 -73 64 -27 362 -145 474 -188 135 -51 143 -56 147 -84 3 -16 10 -232
16 -480 6 -247 13 -486 16 -530 7 -99 33 -163 88 -213 22 -21 169 -112 326
-203 345 -201 360 -209 404 -209 38 0 527 189 579 224 42 29 77 91 77 140 0
21 -20 111 -45 200 -24 89 -74 269 -111 401 -113 409 -134 489 -126 496 4 3
149 36 322 74 173 37 330 74 348 81 43 18 52 46 52 171 l0 105 -44 -6 c-40 -6
-48 -4 -82 26 -48 42 -64 82 -64 158 0 111 54 180 141 180 l49 0 0 66 0 66 28
-6 c15 -3 61 -10 102 -17 41 -7 91 -20 110 -29 134 -65 303 -43 423 55 171
139 278 404 278 690 0 305 -77 521 -248 687 -125 123 -284 154 -443 87 -49
-20 -220 -57 -239 -51 -7 2 -11 30 -11 73 l0 69 -45 -7 c-85 -11 -135 54 -135
177 0 134 67 208 158 176 l23 -8 -3 123 -3 123 -310 72 c-170 39 -413 95 -540
124 -253 59 -308 66 -375 46z m440 -302 c0 -4 -20 -24 -45 -46 -72 -63 -89
-106 -89 -213 1 -107 15 -146 81 -216 l46 -49 -35 0 c-54 0 -110 47 -148 124
-31 62 -32 70 -28 153 5 97 24 147 76 196 35 33 142 72 142 51z m153 -68 c51
-47 71 -103 71 -196 1 -75 -3 -91 -28 -137 -33 -61 -79 -88 -130 -79 -66 12
-108 87 -114 201 -4 68 -1 89 18 133 42 97 124 132 183 78z m460 -103 c-60
-56 -77 -96 -77 -179 1 -99 45 -185 107 -207 26 -9 -4 -19 -38 -13 -78 15
-145 118 -145 224 0 56 35 136 76 174 30 27 50 35 93 37 23 1 21 -2 -16 -36z
m707 -523 c0 -5 -4 -10 -9 -10 -11 0 -178 -28 -208 -35 -13 -3 -23 -2 -23 3 0
11 154 50 203 51 20 1 37 -3 37 -9z m102 -57 c25 -22 23 -43 -4 -43 -13 0 -80
-7 -151 -17 -97 -13 -130 -14 -139 -5 -6 6 -9 14 -6 17 9 10 220 63 252 64 16
1 38 -6 48 -16z m-607 -73 c-56 -85 -94 -176 -123 -293 -13 -56 -17 -115 -17
-262 0 -178 2 -196 28 -290 33 -117 81 -221 131 -287 20 -26 33 -49 29 -51 -5
-2 -64 5 -133 17 l-125 21 -32 50 c-74 112 -127 281 -139 439 -7 105 -17 122
-60 112 l-27 -7 6 -107 c8 -151 63 -345 124 -439 19 -29 20 -29 -121 -2 -133
25 -187 52 -260 129 -63 66 -110 153 -132 247 -22 90 -22 249 0 333 37 148
132 287 228 336 75 38 84 28 33 -40 -126 -167 -180 -454 -124 -656 27 -99 47
-132 78 -128 36 4 48 31 32 70 -69 166 -66 352 9 532 34 81 107 191 163 244
37 36 49 40 232 72 66 12 140 25 165 30 94 17 93 18 35 -70z m215 4 c82 -109
124 -231 156 -452 10 -64 22 -123 27 -130 6 -7 22 -12 36 -10 l26 3 -1 116 -1
117 61 11 c91 18 126 31 126 48 0 12 -12 14 -77 7 -123 -12 -128 -12 -131 13
-3 23 -14 20 187 61 51 10 86 23 89 31 5 15 -59 13 -232 -7 -63 -8 -69 -7 -76
12 -5 13 -3 23 4 27 10 6 292 69 308 69 16 0 60 -105 84 -202 72 -291 24 -602
-124 -808 -38 -53 -94 -110 -109 -110 -16 0 -232 49 -257 59 -18 7 -18 8 -2
24 14 14 37 17 123 17 79 0 104 3 101 13 -3 6 -33 18 -69 24 -35 7 -74 15 -86
18 l-22 5 24 53 c34 79 66 188 60 208 -7 21 -44 32 -61 18 -7 -6 -22 -42 -34
-82 -28 -92 -99 -230 -148 -286 l-38 -44 -23 24 c-32 34 -101 136 -101 149 0
7 19 33 41 58 91 103 142 290 124 457 -6 63 -8 66 -28 60 -72 -23 -108 -13
-143 40 -34 52 -9 176 38 191 25 8 22 28 -7 55 -13 13 -25 29 -25 34 0 21 106
165 121 165 9 0 36 -25 59 -56z m474 -26 c5 -9 8 -19 5 -22 -8 -8 -289 -47
-313 -44 -12 2 -21 10 -21 18 0 10 35 22 130 41 145 31 183 32 199 7z m-297
-1188 c103 -14 125 -19 119 -29 -10 -15 -125 -34 -166 -27 -64 10 -120 36
-113 52 6 17 51 18 160 4z m-571 -153 c-84 -53 -115 -109 -116 -206 0 -81 25
-136 87 -191 25 -22 43 -40 40 -40 -3 0 -29 5 -56 11 -41 8 -58 19 -89 54
-126 143 -50 381 123 383 27 1 28 0 11 -11z m-616 -67 c0 -5 -7 -10 -15 -10
-26 0 -88 -64 -111 -115 -33 -71 -33 -180 0 -250 22 -48 84 -115 116 -129 8
-3 -10 -5 -41 -3 -64 4 -98 25 -141 89 -55 81 -65 206 -24 294 24 52 93 120
130 127 42 8 86 7 86 -3z m160 -56 c102 -86 107 -290 9 -378 -62 -57 -130 -48
-180 22 -39 56 -52 106 -47 182 11 154 129 248 218 174z m-1070 -598 c30 -12
140 -60 244 -105 l188 -83 195 37 c107 20 197 34 200 32 3 -3 -42 -20 -99 -37
-56 -17 -147 -45 -200 -63 l-97 -31 -73 33 c-93 42 -108 46 -108 31 0 -7 39
-193 86 -414 47 -220 101 -475 120 -566 19 -91 41 -189 48 -217 12 -47 12 -53
-1 -53 -8 0 -27 8 -41 19 -15 10 -137 83 -272 161 -243 141 -299 181 -325 231
-13 24 -24 183 -14 193 3 3 95 -33 204 -79 120 -52 205 -83 217 -79 24 7 35
52 17 69 -8 8 -48 27 -89 43 -79 31 -232 95 -312 130 l-48 21 0 56 0 55 38
-15 c112 -48 304 -115 326 -115 16 0 27 7 31 20 14 43 11 44 -310 167 -38 15
-76 33 -82 42 -17 20 -17 101 0 101 7 0 74 -25 150 -55 152 -61 181 -66 198
-33 18 34 -18 57 -198 122 l-160 59 -6 120 c-7 141 3 176 62 207 45 24 45 24
111 -4z m980 -517 c4 -13 10 -36 13 -50 l7 -27 -208 -67 c-114 -36 -231 -75
-260 -86 -69 -25 -82 -24 -82 5 0 14 -5 37 -10 52 -6 15 -7 31 -2 36 4 4 89
33 188 62 98 30 213 66 254 79 41 14 79 24 84 23 6 -1 13 -13 16 -27z m56
-210 c8 -24 14 -51 14 -60 0 -21 -539 -197 -550 -179 -8 14 -23 110 -18 116 2
2 109 37 238 78 129 41 246 79 260 84 36 15 42 11 56 -39z"/>
<path d="M5980 5573 c-12 -16 -40 -65 -62 -110 -42 -87 -46 -128 -15 -147 26
-17 47 2 70 64 11 29 35 79 53 109 36 60 41 80 22 99 -20 20 -45 14 -68 -15z"/>
<path d="M3581 5961 c-13 -24 -15 -1919 -2 -1939 5 -8 21 -12 37 -10 28 3 29
6 35 63 4 33 7 192 8 353 l1 292 48 0 48 0 10 -42 c8 -37 13 -43 36 -46 35 -4
48 25 48 103 0 106 54 229 133 302 123 113 269 34 337 -182 29 -92 32 -262 6
-350 -62 -211 -206 -311 -323 -225 -44 33 -95 102 -115 156 -13 38 -31 48 -58
34 -30 -16 -30 -35 0 -98 34 -71 97 -143 155 -178 175 -102 381 58 431 336 28
154 1 367 -61 490 -34 67 -115 148 -155 156 -17 4 -33 10 -36 15 -8 14 58 -2
113 -28 100 -46 175 -164 209 -327 l19 -88 120 4 c135 4 173 17 205 71 19 31
20 54 20 520 0 526 0 527 -53 576 -55 51 -84 45 -502 -93 -209 -69 -424 -139
-477 -156 -53 -18 -101 -37 -106 -43 -5 -7 -16 -72 -26 -144 -29 -232 -37
-203 -32 117 6 342 3 374 -36 378 -18 2 -30 -3 -37 -17z m1129 -155 c0 -8 -9
-18 -21 -21 -27 -9 -59 -79 -59 -132 0 -24 7 -61 16 -83 9 -23 14 -43 12 -46
-3 -2 -19 8 -36 24 -86 81 -49 272 53 272 24 0 35 -5 35 -14z m0 -665 c0 -5
-9 -12 -19 -16 -28 -9 -61 -83 -61 -136 1 -24 7 -62 15 -84 8 -21 13 -41 11
-42 -9 -9 -38 13 -55 40 -60 100 -17 247 74 247 19 0 35 -4 35 -9z m-940 -127
c0 -3 -11 -19 -25 -35 -31 -38 -41 -90 -26 -151 15 -66 14 -73 -5 -57 -60 50
-60 200 0 241 13 9 56 10 56 2z"/>
<path d="M4071 4982 c-8 -15 -1 -27 40 -67 35 -34 53 -61 64 -99 23 -77 29
-176 15 -237 -12 -53 -57 -149 -70 -149 -3 0 -16 -9 -28 -20 -18 -17 -20 -24
-10 -45 18 -40 54 -33 104 21 70 75 102 206 84 347 -14 113 -34 167 -81 221
-33 38 -47 46 -74 46 -23 0 -38 -6 -44 -18z"/>
<path d="M3964 4865 c-39 -39 -56 -92 -61 -185 -4 -79 -3 -89 24 -139 50 -97
104 -114 163 -51 75 80 70 300 -9 379 -30 30 -85 28 -117 -4z"/>
<path d="M7832 3558 c-7 -7 -12 -16 -12 -21 0 -8 -36 -93 -86 -202 -37 -81
-39 -102 -14 -110 15 -5 25 -1 34 10 11 15 23 12 136 -38 69 -30 133 -57 143
-60 10 -4 17 -17 17 -32 0 -28 25 -44 42 -27 6 6 41 81 78 167 68 155 68 156
46 170 -11 7 -33 17 -48 20 -21 5 -27 3 -33 -15 -5 -15 -1 -25 10 -34 16 -11
14 -18 -16 -90 -18 -43 -38 -80 -45 -83 -11 -4 -114 35 -114 44 0 2 6 19 14
38 11 25 21 34 43 37 20 2 29 9 31 24 2 17 -7 25 -52 44 -31 12 -63 20 -71 16
-20 -7 -19 -36 1 -50 14 -11 14 -15 -2 -49 -19 -40 -21 -40 -90 -11 -18 8 -35
17 -38 22 -2 4 10 41 28 82 28 65 36 76 62 80 42 7 39 40 -6 62 -43 21 -43 21
-58 6z"/>
<path d="M2384 3522 c-31 -5 -64 -44 -74 -89 -5 -21 -6 -77 -3 -125 5 -72 3
-92 -11 -113 -32 -49 -98 -20 -132 60 -21 51 -17 89 12 124 21 25 23 34 14 51
-13 25 -11 25 -65 0 -51 -23 -61 -36 -45 -55 6 -8 18 -41 26 -75 19 -81 46
-132 91 -169 47 -39 83 -47 122 -26 57 29 66 55 63 185 -2 101 1 121 16 140
26 33 62 21 90 -29 27 -48 28 -81 2 -114 -43 -54 -17 -79 55 -52 47 18 58 42
31 64 -7 6 -17 30 -20 54 -8 45 -42 111 -74 140 -23 21 -68 34 -98 29z"/>
<path d="M2708 3008 c-9 -7 -18 -24 -20 -38 -2 -18 -31 -45 -108 -102 -126
-94 -127 -94 -153 -78 -17 10 -23 10 -34 -6 -17 -24 -17 -28 10 -61 13 -15 58
-76 101 -135 43 -60 83 -108 89 -108 7 1 26 12 42 25 25 21 28 28 19 42 -7 10
-22 17 -35 17 -18 -2 -34 12 -68 57 -24 33 -44 66 -45 73 0 8 53 53 118 101
101 74 122 86 137 77 24 -15 49 -5 49 20 0 16 -16 41 -80 121 -3 4 -13 1 -22
-5z"/>
<path d="M7543 2938 c-17 -6 -45 -25 -61 -42 -39 -41 -162 -205 -162 -215 0
-5 7 -14 16 -22 12 -10 20 -10 35 -1 23 15 17 19 149 -81 87 -65 106 -84 110
-110 8 -48 37 -42 82 18 21 28 38 58 38 68 0 23 -26 33 -45 17 -12 -10 -22 -8
-55 15 -69 48 -72 63 -20 110 19 18 26 18 103 7 126 -18 130 -17 162 28 23 33
25 42 15 55 -16 20 -39 19 -47 -1 -5 -13 -15 -15 -62 -9 -31 5 -68 8 -83 9
-26 1 -28 4 -28 48 0 82 -68 131 -147 106z m54 -90 c33 -31 30 -73 -9 -130
-18 -27 -36 -48 -40 -48 -18 0 -108 73 -108 87 0 22 93 113 115 113 10 0 29
-10 42 -22z"/>
<path d="M7079 2443 c-30 -27 -89 -76 -132 -111 -42 -35 -77 -67 -77 -72 0
-18 32 -42 43 -31 6 6 14 11 18 11 3 0 48 -50 100 -111 81 -96 94 -116 94
-147 0 -28 4 -37 17 -37 20 0 278 214 278 231 0 21 -41 64 -61 64 -18 0 -23
-13 -20 -50 1 -9 -28 -42 -65 -75 l-67 -59 -38 42 c-45 48 -47 61 -15 91 20
19 28 21 46 11 16 -9 25 -9 36 1 21 17 17 30 -25 78 -46 52 -71 51 -71 -3 0
-27 -7 -39 -29 -55 l-28 -21 -43 48 -42 47 64 57 c56 51 67 57 94 52 19 -3 35
-1 39 5 8 14 -32 81 -49 81 -7 0 -37 -21 -67 -47z"/>
<path d="M3015 2432 c-73 -40 -110 -104 -110 -192 0 -55 5 -73 27 -107 125
-190 349 -205 439 -31 47 92 29 180 -54 267 -87 90 -207 115 -302 63z m232
-65 c66 -44 91 -132 57 -203 -24 -49 -96 -112 -139 -120 -88 -16 -191 72 -189
161 1 27 11 60 27 88 59 99 160 130 244 74z"/>
<path d="M6587 2084 c-75 -38 -86 -65 -32 -74 21 -4 36 -16 52 -45 13 -22 22
-46 20 -53 -2 -12 -157 -102 -175 -102 -5 0 -19 22 -31 49 -19 38 -21 52 -12
69 11 21 6 52 -10 52 -5 0 -38 -15 -74 -32 -52 -26 -65 -37 -63 -53 2 -13 13
-22 31 -25 25 -4 37 -22 94 -129 61 -115 65 -127 55 -155 -8 -21 -8 -33 -1
-42 9 -11 25 -6 80 21 38 20 69 39 69 44 0 27 -13 41 -34 35 -19 -4 -27 3 -49
46 -15 29 -27 56 -27 61 0 8 148 89 177 97 6 2 24 -22 39 -53 21 -42 25 -58
16 -67 -18 -18 -15 -58 3 -58 16 0 82 31 121 57 30 19 21 53 -15 53 -23 0 -33
14 -93 131 -57 112 -65 134 -56 154 11 24 5 55 -9 55 -4 -1 -39 -17 -76 -36z"/>
<path d="M3738 2005 c-64 -17 -99 -45 -130 -102 -50 -92 -46 -165 15 -245 45
-59 146 -111 204 -106 34 2 43 0 43 -13 0 -17 30 -49 47 -49 10 0 103 182 103
202 0 13 -129 70 -146 64 -28 -11 -15 -45 21 -60 42 -18 45 -43 11 -75 -22
-20 -33 -23 -84 -19 -98 7 -166 71 -166 157 0 58 44 143 89 171 39 24 123 27
164 6 47 -25 91 -83 91 -120 0 -35 21 -62 40 -51 18 11 62 106 56 122 -5 11
-15 14 -35 10 -23 -5 -34 0 -57 24 -35 37 -92 67 -159 85 -27 8 -52 13 -55 13
-3 0 -26 -7 -52 -14z"/>
<path d="M4494 1755 c-4 -9 -2 -21 5 -28 19 -19 13 -34 -66 -149 -91 -135
-111 -158 -134 -158 -47 0 -30 -46 19 -54 20 -3 52 -8 70 -12 29 -6 32 -4 32
19 0 14 -4 29 -10 32 -14 9 -12 17 10 44 l20 23 98 -17 c60 -10 102 -23 110
-33 17 -22 15 -62 -2 -62 -17 0 -32 -39 -19 -49 12 -11 142 -33 153 -26 18 11
11 47 -9 52 -25 6 -25 7 -67 202 -19 91 -37 173 -40 182 -3 11 -25 21 -67 29
-34 7 -70 14 -80 17 -10 2 -20 -2 -23 -12z m118 -158 c26 -107 26 -106 -24
-96 -24 5 -58 12 -75 15 -18 4 -33 9 -33 12 0 6 40 68 79 120 13 18 26 30 30
27 3 -4 13 -39 23 -78z"/>
<path d="M5446 1704 c-10 -26 -7 -34 18 -44 26 -9 24 1 41 -198 2 -35 1 -62
-4 -60 -9 3 -94 107 -189 230 -57 74 -60 75 -156 62 -36 -5 -46 -11 -46 -26 0
-10 11 -23 24 -29 22 -10 24 -17 30 -138 4 -69 10 -136 13 -149 4 -18 1 -25
-16 -29 -15 -4 -21 -13 -21 -34 0 -27 3 -29 39 -29 57 0 102 11 108 27 3 7 -6
24 -20 37 -23 21 -25 32 -32 145 -4 67 -5 124 -3 126 2 3 60 -65 129 -150 68
-85 129 -156 134 -158 6 -2 27 -2 49 1 l38 4 -6 112 c-4 61 -9 143 -12 182 -6
67 -5 72 15 79 14 4 21 15 21 31 0 23 -2 24 -74 24 -58 0 -75 -3 -80 -16z"/>
</g>
</svg>
